REM DISCID AD0BE00D
REM COMMENT "Morituri"
FILE "data.wav" WAVE
  TRACK 01 AUDIO
    INDEX 00 00:00:00
    INDEX 01 03:22:70
  TRACK 02 AUDIO
    INDEX 01 07:44:69
  TRACK 03 AUDIO
    INDEX 01 11:25:07
  TRACK 04 AUDIO
    INDEX 01 15:20:40
  TRACK 05 AUDIO
    INDEX 00 18:40:70
    INDEX 01 18:41:67
  TRACK 06 AUDIO
    INDEX 00 21:28:35
    INDEX 01 21:29:01
  TRACK 07 AUDIO
    INDEX 00 24:58:10
    INDEX 01 24:58:27
  TRACK 08 AUDIO
    INDEX 00 29:23:69
    INDEX 01 29:23:73
  TRACK 09 AUDIO
    INDEX 00 32:59:09
    INDEX 01 32:59:20
  TRACK 10 AUDIO
    INDEX 01 37:18:72
  TRACK 11 AUDIO
    INDEX 00 41:11:21
    INDEX 01 41:11:64
  TRACK 12 AUDIO
    INDEX 00 45:07:40
    INDEX 01 45:09:06
  TRACK 13 AUDIO
    INDEX 00 49:19:06
    INDEX 01 49:19:28
